<?xml version="1.0" encoding="utf-8"?>
<!-- Generator: Adobe Illustrator 15.1.0, SVG Export Plug-In . SVG Version: 6.00 Build 0)  -->
<!DOCTYPE svg PUBLIC "-//W3C//DTD SVG 1.1//EN" "http://www.w3.org/Graphics/SVG/1.1/DTD/svg11.dtd">
<svg version="1.1" id="Layer_1" xmlns="http://www.w3.org/2000/svg" xmlns:xlink="http://www.w3.org/1999/xlink" x="0px" y="0px"
	 width="25px" height="18px" viewBox="0 0 25 18" enable-background="new 0 0 25 18" xml:space="preserve">
<path fill="#FFAA19" d="M22.923,10.359V8.45h-3.819V6.539h-1.91V4.725l1.91-0.096v-1.91h-1.91l-0.084,1.91h-1.826v1.91h-5.73v-1.91
	H7.745l-0.104-1.91h-1.91v1.91l1.911,0.095v1.815h-1.91V8.45H1.911v1.909H0v5.731h1.91V12.27h1.91v3.82h1.911V18h1.91h3.82v-1.91
	h-3.82v-1.91h1.91h5.73h1.91v1.91h-3.82V18h5.73v-1.91h1.91v-1.91v-1.91h1.909v3.82h1.911v-3.82v-1.91H22.923L22.923,10.359z
	 M9.552,10.359h-1.91V8.45h1.91V10.359z M17.193,10.359h-1.911V8.45h1.911V10.359z"/>
</svg>
